<svg id="Layer_1" data-name="Layer 1" xmlns="http://www.w3.org/2000/svg" viewBox="0 0 10.22 23.81"><defs><style>.cls-1{fill:#261a0f;}</style></defs><title>logo-ini</title><path class="cls-1" d="M3.63,7.53a1.22,1.22,0,0,0,1.32.8A0.88,0.88,0,0,0,6,7.64c0-.36-0.28-0.47-0.69-0.55L3.14,6.63C1.52,6.3.34,5.47,0.34,3.62,0.34,1.37,2.24,0,4.7,0,7.49,0,9,1.56,9.27,3.45H6a1.23,1.23,0,0,0-1.28-.81c-0.59,0-1,.21-1,0.61a0.59,0.59,0,0,0,.59.54L6.54,4.29C8.44,4.75,9.4,5.77,9.4,7.43,9.4,9.72,7.42,11,5,11,2.31,11,.49,9.7.13,7.53h3.5Z"/><path class="cls-1" d="M3.36,17.12l2.86-3.95h3.84L6.67,17.75l3.55,6.06H6.34L4.14,20,3.36,21.05v2.75H0V13.17H3.36v3.95Z"/></svg>